<svg width="26" height="24" viewBox="0 0 26 24" fill="none" xmlns="http://www.w3.org/2000/svg">
<path fill-rule="evenodd" clip-rule="evenodd" d="M3 8.4502C3.55228 8.4502 4 8.89791 4 9.4502V22.0002H22V9.4502C22 8.89791 22.4477 8.4502 23 8.4502C23.5523 8.4502 24 8.89791 24 9.4502V22.0002C24 22.5306 23.7893 23.0393 23.4142 23.4144C23.0391 23.7895 22.5304 24.0002 22 24.0002H4C3.46957 24.0002 2.96086 23.7895 2.58579 23.4144C2.21071 23.0393 2 22.5306 2 22.0002V9.4502C2 8.89791 2.44772 8.4502 3 8.4502Z" fill="#A259FF"/>
<path fill-rule="evenodd" clip-rule="evenodd" d="M0 1C0 0.447715 0.447715 0 1 0H25C25.5523 0 26 0.447715 26 1C26 1.55228 25.5523 2 25 2H1C0.447715 2 0 1.55228 0 1Z" fill="#A259FF"/>
<path fill-rule="evenodd" clip-rule="evenodd" d="M1 3C1.55228 3 2 3.44772 2 4V6C2 6.79565 2.31607 7.55871 2.87868 8.12132C3.44129 8.68393 4.20435 9 5 9C5.79565 9 6.55871 8.68393 7.12132 8.12132C7.68393 7.55871 8 6.79565 8 6V4C8 3.44772 8.44772 3 9 3C9.55229 3 10 3.44772 10 4V6C10 7.32608 9.47322 8.59785 8.53553 9.53553C7.59785 10.4732 6.32608 11 5 11C3.67392 11 2.40215 10.4732 1.46447 9.53553C0.526784 8.59785 0 7.32608 0 6V4C0 3.44772 0.447715 3 1 3Z" fill="#A259FF"/>
<path fill-rule="evenodd" clip-rule="evenodd" d="M9 3C9.55228 3 10 3.44772 10 4V6C10 6.79565 10.3161 7.55871 10.8787 8.12132C11.4413 8.68393 12.2044 9 13 9C13.7956 9 14.5587 8.68393 15.1213 8.12132C15.6839 7.55871 16 6.79565 16 6V4C16 3.44772 16.4477 3 17 3C17.5523 3 18 3.44772 18 4V6C18 7.32608 17.4732 8.59785 16.5355 9.53553C15.5979 10.4732 14.3261 11 13 11C11.6739 11 10.4021 10.4732 9.46447 9.53553C8.52678 8.59785 8 7.32608 8 6V4C8 3.44772 8.44772 3 9 3Z" fill="#A259FF"/>
<path fill-rule="evenodd" clip-rule="evenodd" d="M17 3C17.5523 3 18 3.44772 18 4V6C18 6.79565 18.3161 7.55871 18.8787 8.12132C19.4413 8.68393 20.2044 9 21 9C21.7956 9 22.5587 8.68393 23.1213 8.12132C23.6839 7.55871 24 6.79565 24 6V4C24 3.44772 24.4477 3 25 3C25.5523 3 26 3.44772 26 4V6C26 7.32608 25.4732 8.59785 24.5355 9.53553C23.5979 10.4732 22.3261 11 21 11C19.6739 11 18.4021 10.4732 17.4645 9.53553C16.5268 8.59785 16 7.32608 16 6V4C16 3.44772 16.4477 3 17 3Z" fill="#A259FF"/>
</svg>
